<svg xmlns="http://www.w3.org/2000/svg" viewBox="0 0 820 380" font-family="Commissioner, Inter, sans-serif">
  <!-- Background -->
  <rect width="820" height="380" rx="12" fill="#faf9f6" stroke="#e0e0e0" stroke-width="2"/>

  <!-- Title -->
  <text x="410" y="38" text-anchor="middle" font-family="Bricolage Grotesque, Raleway, sans-serif" font-weight="700" font-size="18" fill="#2d2d2d">Typography</text>

  <!-- DM Serif Display -->
  <rect x="30" y="58" width="370" height="140" rx="8" fill="#ffffff" stroke="#E8DCC8" stroke-width="1.5"/>
  <rect x="30" y="58" width="370" height="6" rx="3" fill="#B85042"/>
  <text x="50" y="90" font-family="Georgia, serif" font-weight="700" font-size="24" fill="#3D2B1F">DM Serif Display</text>
  <text x="50" y="112" font-size="11" fill="#8C7B6B" letter-spacing="0.05em" font-weight="600" text-transform="uppercase">--serif · HEADINGS &amp; DISPLAY</text>
  <text x="50" y="136" font-family="Georgia, serif" font-size="14" fill="#5C4A3A">Section titles, hero headlines, card headers</text>
  <text x="50" y="156" font-family="Georgia, serif" font-size="14" fill="#5C4A3A">Communicates warmth and authority</text>
  <text x="50" y="180" font-size="11" fill="#8C7B6B">Weights: 400 (Regular), 400 Italic</text>

  <!-- Source Sans 3 -->
  <rect x="420" y="58" width="370" height="140" rx="8" fill="#ffffff" stroke="#E8DCC8" stroke-width="1.5"/>
  <rect x="420" y="58" width="370" height="6" rx="3" fill="#B85042"/>
  <text x="440" y="90" font-weight="400" font-size="22" fill="#3D2B1F">Source Sans 3</text>
  <text x="440" y="112" font-size="11" fill="#8C7B6B" letter-spacing="0.05em" font-weight="600">--sans · BODY TEXT</text>
  <text x="440" y="136" font-size="14" fill="#5C4A3A">Paragraphs, lists, form labels, descriptions</text>
  <text x="440" y="156" font-size="14" fill="#5C4A3A">Optimized for clarity and readability</text>
  <text x="440" y="180" font-size="11" fill="#8C7B6B">Weights: 300, 400, 500, 600, 700 + Italics</text>

  <!-- Monospace -->
  <rect x="30" y="214" width="370" height="100" rx="8" fill="#ffffff" stroke="#E8DCC8" stroke-width="1.5"/>
  <rect x="30" y="214" width="370" height="6" rx="3" fill="#8C7B6B"/>
  <text x="50" y="248" font-family="Consolas, monospace" font-size="18" fill="#3D2B1F">SF Mono / JetBrains Mono</text>
  <text x="50" y="268" font-size="11" fill="#8C7B6B" letter-spacing="0.05em" font-weight="600">--mono · CODE &amp; DATA</text>
  <text x="50" y="290" font-size="13" fill="#5C4A3A">WCAG references, score values, page footers</text>

  <!-- Scale reference -->
  <rect x="420" y="214" width="370" height="100" rx="8" fill="#ffffff" stroke="#E8DCC8" stroke-width="1.5"/>
  <rect x="420" y="214" width="370" height="6" rx="3" fill="#3D2B1F"/>
  <text x="440" y="248" font-weight="700" font-size="16" fill="#3D2B1F">Type Scale</text>
  <text x="440" y="272" font-size="12" fill="#5C4A3A">
    <tspan x="440">h1: 2.25rem · h2: 1.75rem · h3: 1.25rem</tspan>
    <tspan x="440" dy="20">Body: 1rem / 1.5 line-height · Small: 0.875rem</tspan>
  </text>

  <!-- Note -->
  <rect x="30" y="330" width="760" height="36" rx="8" fill="#FAF6F0" stroke="#E8DCC8" stroke-width="1.5"/>
  <text x="410" y="354" text-anchor="middle" font-size="12" fill="#5C4A3A">All text meets WCAG 2.1 AA minimum size requirements · Base font: 16px (1rem) · No text below 12px</text>
</svg>