<?xml version="1.0" encoding="UTF-8"?>
<svg xmlns="http://www.w3.org/2000/svg" viewBox="99.9 92.4 215.0 200.1" width="400" height="400">
  <path d="M 209.7 200.9 L 209.8 201.2 L 209.8 201.5 L 209.9 201.8 L 210.0 202.1 L 210.0 202.4 L 210.1 202.8 L 210.1 203.1 L 210.1 203.5 L 210.1 203.8 L 210.1 204.2 L 210.1 204.5 L 210.1 204.9 L 210.1 205.2 L 210.0 205.6 L 209.9 206.0 L 209.9 206.3 L 209.8 206.7 L 209.7 207.1 L 209.5 207.4 L 209.4 207.8 L 209.3 208.2 L 209.1 208.5 L 208.9 208.9 L 208.7 209.3 L 208.5 209.6 L 208.3 210.0 L 208.1 210.3 L 207.8 210.7 L 207.6 211.0 L 207.3 211.3 L 207.0 211.7 L 206.7 212.0 L 206.4 212.3 L 206.1 212.6 L 205.8 212.9 L 205.4 213.2 L 205.0 213.5 L 204.7 213.7 L 204.3 214.0 L 203.9 214.3 L 203.5 214.5 L 203.0 214.7 L 202.6 214.9 L 202.2 215.1 L 201.7 215.3 L 201.2 215.5 L 200.8 215.7 L 200.3 215.8 L 199.8 215.9 L 199.3 216.0 L 198.8 216.1 L 198.3 216.2 L 197.8 216.3 L 197.2 216.3 L 196.7 216.4 L 196.2 216.4 L 195.6 216.4 L 195.1 216.4 L 194.6 216.3 L 194.0 216.3 L 193.5 216.2 L 192.9 216.1 L 192.4 216.0 L 191.8 215.9 L 191.3 215.7 L 190.7 215.5 L 190.2 215.3 L 189.6 215.1 L 189.1 214.9 L 188.5 214.7 L 188.0 214.4 L 187.5 214.1 L 187.0 213.8 L 186.4 213.5 L 185.9 213.2 L 185.4 212.8 L 184.9 212.4 L 184.5 212.0 L 184.0 211.6 L 183.5 211.2 L 183.1 210.7 L 182.6 210.3 L 182.2 209.8 L 181.8 209.3 L 181.4 208.8 L 181.0 208.2 L 180.7 207.7 L 180.3 207.1 L 180.0 206.5 L 179.7 206.0 L 179.4 205.4 L 179.1 204.7 L 178.8 204.1 L 178.6 203.5 L 178.3 202.8 L 178.1 202.1 L 178.0 201.5 L 177.8 200.8 L 177.7 200.1 L 177.5 199.4 L 177.4 198.7 L 177.4 198.0 L 177.3 197.3 L 177.3 196.5 L 177.3 195.8 L 177.3 195.1 L 177.3 194.3 L 177.4 193.6 L 177.5 192.8 L 177.6 192.1 L 177.7 191.4 L 177.9 190.6 L 178.1 189.9 L 178.3 189.1 L 178.5 188.4 L 178.8 187.7 L 179.1 186.9 L 179.4 186.2 L 179.7 185.5 L 180.1 184.8 L 180.5 184.1 L 180.9 183.4 L 181.3 182.7 L 181.8 182.1 L 182.2 181.4 L 182.7 180.8 L 183.3 180.2 L 183.8 179.5 L 184.4 178.9 L 185.0 178.4 L 185.6 177.8 L 186.2 177.2 L 186.9 176.7 L 187.6 176.2 L 188.3 175.7 L 189.0 175.2 L 189.7 174.8 L 190.4 174.3 L 191.2 173.9 L 192.0 173.6 L 192.8 173.2 L 193.6 172.9 L 194.4 172.5 L 195.3 172.3 L 196.1 172.0 L 197.0 171.8 L 197.9 171.5 L 198.8 171.4 L 199.6 171.2 L 200.6 171.1 L 201.5 171.0 L 202.4 170.9 L 203.3 170.9 L 204.2 170.9 L 205.2 170.9 L 206.1 170.9 L 207.0 171.0 L 208.0 171.1 L 208.9 171.3 L 209.9 171.4 L 210.8 171.6 L 211.7 171.9 L 212.6 172.1 L 213.6 172.4 L 214.5 172.8 L 215.4 173.1 L 216.3 173.5 L 217.2 173.9 L 218.1 174.4 L 218.9 174.8 L 219.8 175.3 L 220.7 175.9 L 221.5 176.4 L 222.3 177.0 L 223.1 177.7 L 223.9 178.3 L 224.7 179.0 L 225.4 179.7 L 226.1 180.4 L 226.8 181.2 L 227.5 181.9 L 228.2 182.7 L 228.8 183.6 L 229.4 184.4 L 230.0 185.3 L 230.6 186.2 L 231.1 187.1 L 231.6 188.0 L 232.1 189.0 L 232.6 190.0 L 233.0 191.0 L 233.4 192.0 L 233.7 193.0 L 234.1 194.0 L 234.4 195.1 L 234.6 196.1 L 234.9 197.2 L 235.1 198.3 L 235.2 199.4 L 235.4 200.5 L 235.5 201.6 L 235.5 202.8 L 235.5 203.9 L 235.5 205.0 L 235.5 206.1 L 235.4 207.3 L 235.3 208.4 L 235.1 209.5 L 234.9 210.7 L 234.7 211.8 L 234.4 212.9 L 234.1 214.1 L 233.8 215.2 L 233.4 216.3 L 233.0 217.4 L 232.6 218.5 L 232.1 219.6 L 231.5 220.6 L 231.0 221.7 L 230.4 222.7 L 229.8 223.7 L 229.1 224.7 L 228.4 225.7 L 227.7 226.7 L 226.9 227.6 L 226.1 228.6 L 225.3 229.5 L 224.5 230.4 L 223.6 231.2 L 222.7 232.0 L 221.7 232.8 L 220.7 233.6 L 219.7 234.4 L 218.7 235.1 L 217.7 235.8 L 216.6 236.4 L 215.5 237.0 L 214.4 237.6 L 213.2 238.2 L 212.1 238.7 L 210.9 239.2 L 209.7 239.6 L 208.4 240.0 L 207.2 240.4 L 206.0 240.7 L 204.7 241.0 L 203.4 241.3 L 202.1 241.5 L 200.8 241.7 L 199.5 241.8 L 198.2 241.9 L 196.9 242.0 L 195.5 242.0 L 194.2 241.9 L 192.9 241.9 L 191.5 241.7 L 190.2 241.6 L 188.9 241.4 L 187.5 241.1 L 186.2 240.8 L 184.9 240.5 L 183.6 240.1 L 182.3 239.7 L 181.0 239.3 L 179.7 238.8 L 178.4 238.2 L 177.2 237.6 L 175.9 237.0 L 174.7 236.3 L 173.5 235.6 L 172.3 234.9 L 171.2 234.1 L 170.0 233.3 L 168.9 232.4 L 167.8 231.5 L 166.7 230.6 L 165.7 229.6 L 164.7 228.6 L 163.7 227.5 L 162.8 226.5 L 161.8 225.4 L 161.0 224.2 L 160.1 223.0 L 159.3 221.8 L 158.5 220.6 L 157.8 219.4 L 157.1 218.1 L 156.4 216.8 L 155.8 215.4 L 155.2 214.1 L 154.6 212.7 L 154.1 211.3 L 153.7 209.9 L 153.3 208.4 L 152.9 207.0 L 152.6 205.5 L 152.3 204.0 L 152.1 202.5 L 151.9 201.0 L 151.7 199.5 L 151.6 198.0 L 151.6 196.5 L 151.6 195.0 L 151.7 193.4 L 151.8 191.9 L 151.9 190.3 L 152.1 188.8 L 152.4 187.3 L 152.7 185.8 L 153.0 184.2 L 153.4 182.7 L 153.9 181.2 L 154.3 179.7 L 154.9 178.3 L 155.5 176.8 L 156.1 175.3 L 156.8 173.9 L 157.5 172.5 L 158.3 171.1 L 159.1 169.7 L 160.0 168.4 L 160.9 167.1 L 161.9 165.8 L 162.9 164.5 L 163.9 163.3 L 165.0 162.0 L 166.1 160.9 L 167.3 159.7 L 168.5 158.6 L 169.7 157.5 L 171.0 156.5 L 172.3 155.5 L 173.7 154.5 L 175.0 153.6 L 176.4 152.8 L 177.9 151.9 L 179.4 151.1 L 180.9 150.4 L 182.4 149.7 L 183.9 149.0 L 185.5 148.4 L 187.1 147.9 L 188.7 147.4 L 190.3 146.9 L 192.0 146.5 L 193.7 146.2 L 195.3 145.9 L 197.0 145.6 L 198.7 145.4 L 200.5 145.3 L 202.2 145.2 L 203.9 145.2 L 205.6 145.2 L 207.4 145.3 L 209.1 145.4 L 210.8 145.6 L 212.6 145.8 L 214.3 146.1 L 216.0 146.5 L 217.7 146.9 L 219.4 147.3 L 221.1 147.8 L 222.8 148.4 L 224.5 149.0 L 226.1 149.7 L 227.8 150.5 L 229.4 151.2 L 231.0 152.1 L 232.5 153.0 L 234.1 153.9 L 235.6 154.9 L 237.0 155.9 L 238.5 157.0 L 239.9 158.2 L 241.3 159.3 L 242.6 160.6 L 244.0 161.8 L 245.2 163.2 L 246.5 164.5 L 247.7 165.9 L 248.8 167.4 L 249.9 168.8 L 251.0 170.4 L 252.0 171.9 L 253.0 173.5 L 253.9 175.1 L 254.8 176.8 L 255.6 178.5 L 256.4 180.2 L 257.1 181.9 L 257.8 183.7 L 258.4 185.5 L 258.9 187.3 L 259.4 189.1 L 259.9 191.0 L 260.2 192.8 L 260.6 194.7 L 260.8 196.6 L 261.0 198.5 L 261.2 200.4 L 261.3 202.4 L 261.3 204.3 L 261.3 206.2 L 261.2 208.2 L 261.0 210.1 L 260.8 212.0 L 260.5 214.0 L 260.1 215.9 L 259.7 217.8 L 259.3 219.7 L 258.8 221.6 L 258.2 223.5 L 257.5 225.4 L 256.8 227.2 L 256.0 229.1 L 255.2 230.9 L 254.3 232.6 L 253.4 234.4 L 252.4 236.1 L 251.3 237.8 L 250.2 239.5 L 249.0 241.2 L 247.8 242.8 L 246.6 244.3 L 245.2 245.9 L 243.9 247.3 L 242.4 248.8 L 241.0 250.2 L 239.4 251.6 L 237.9 252.9 L 236.3 254.2 L 234.6 255.4 L 232.9 256.6 L 231.2 257.7 L 229.4 258.7 L 227.6 259.8 L 225.8 260.7 L 223.9 261.6 L 222.0 262.5 L 220.1 263.2 L 218.1 264.0 L 216.1 264.6 L 214.1 265.2 L 212.1 265.8 L 210.0 266.2 L 208.0 266.6 L 205.9 267.0 L 203.8 267.3 L 201.7 267.5 L 199.6 267.6 L 197.4 267.7 L 195.3 267.7 L 193.2 267.7 L 191.0 267.6 L 188.9 267.4 L 186.8 267.1 L 184.6 266.8 L 182.5 266.4 L 180.4 265.9 L 178.3 265.4 L 176.2 264.8 L 174.1 264.2 L 172.1 263.4 L 170.0 262.7 L 168.0 261.8 L 166.0 260.9 L 164.1 259.9 L 162.1 258.8 L 160.2 257.7 L 158.4 256.6 L 156.5 255.3 L 154.7 254.0 L 153.0 252.7 L 151.3 251.3 L 149.6 249.8 L 147.9 248.3 L 146.4 246.7 L 144.8 245.1 L 143.3 243.4 L 141.9 241.7 L 140.5 239.9 L 139.2 238.1 L 137.9 236.2 L 136.7 234.3 L 135.5 232.4 L 134.4 230.4 L 133.4 228.4 L 132.4 226.3 L 131.5 224.2 L 130.6 222.1 L 129.8 219.9 L 129.1 217.8 L 128.5 215.5 L 127.9 213.3 L 127.4 211.1 L 126.9 208.8 L 126.6 206.5 L 126.3 204.2 L 126.1 201.9 L 125.9 199.6 L 125.8 197.2 L 125.8 194.9 L 125.9 192.6 L 126.0 190.2 L 126.2 187.9 L 126.5 185.5 L 126.9 183.2 L 127.3 180.9 L 127.9 178.6 L 128.4 176.3 L 129.1 174.0 L 129.8 171.8 L 130.6 169.5 L 131.5 167.3 L 132.4 165.1 L 133.5 162.9 L 134.6 160.8 L 135.7 158.7 L 136.9 156.6 L 138.2 154.6 L 139.6 152.6 L 141.0 150.6 L 142.5 148.7 L 144.0 146.8 L 145.6 145.0 L 147.3 143.2 L 149.0 141.5 L 150.8 139.9 L 152.6 138.2 L 154.5 136.7 L 156.5 135.2 L 158.4 133.7 L 160.5 132.3 L 162.6 131.0 L 164.7 129.8 L 166.9 128.6 L 169.1 127.4 L 171.3 126.4 L 173.6 125.4 L 175.9 124.5 L 178.3 123.6 L 180.6 122.9 L 183.0 122.2 L 185.5 121.6 L 187.9 121.0 L 190.4 120.5 L 192.9 120.2 L 195.4 119.8 L 197.9 119.6 L 200.4 119.4 L 203.0 119.4 L 205.5 119.4 L 208.0 119.5 L 210.6 119.6 L 213.1 119.9 L 215.7 120.2 L 218.2 120.6 L 220.7 121.1 L 223.2 121.6 L 225.7 122.3 L 228.2 123.0 L 230.6 123.8 L 233.0 124.7 L 235.4 125.7 L 237.8 126.7 L 240.2 127.8 L 242.5 129.0 L 244.8 130.3 L 247.0 131.6 L 249.2 133.0 L 251.4 134.5 L 253.5 136.0 L 255.5 137.6 L 257.6 139.3 L 259.5 141.1 L 261.5 142.9 L 263.3 144.7 L 265.1 146.7 L 266.9 148.7 L 268.5 150.7 L 270.2 152.8 L 271.7 155.0 L 273.2 157.2 L 274.6 159.4 L 276.0 161.8 L 277.3 164.1 L 278.5 166.5 L 279.6 168.9 L 280.7 171.4 L 281.7 173.9 L 282.6 176.5 L 283.4 179.0 L 284.1 181.6 L 284.8 184.3 L 285.4 186.9 L 285.9 189.6 L 286.3 192.3 L 286.6 195.0 L 286.9 197.7 L 287.0 200.4 A 9.0 9.0 0 0 0 305.0 199.6 L 304.8 196.3 L 304.5 193.0 L 304.0 189.7 L 303.5 186.5 L 302.9 183.3 L 302.2 180.1 L 301.3 176.9 L 300.4 173.8 L 299.4 170.7 L 298.3 167.6 L 297.1 164.6 L 295.8 161.6 L 294.4 158.7 L 292.9 155.8 L 291.3 153.0 L 289.7 150.2 L 287.9 147.5 L 286.1 144.8 L 284.2 142.3 L 282.3 139.7 L 280.2 137.3 L 278.1 134.9 L 275.9 132.5 L 273.6 130.3 L 271.3 128.1 L 268.9 126.0 L 266.4 124.0 L 263.9 122.1 L 261.3 120.2 L 258.7 118.5 L 256.0 116.8 L 253.3 115.2 L 250.5 113.7 L 247.7 112.3 L 244.9 111.0 L 242.0 109.7 L 239.1 108.6 L 236.1 107.6 L 233.2 106.6 L 230.2 105.8 L 227.2 105.0 L 224.1 104.3 L 221.1 103.8 L 218.0 103.3 L 214.9 102.9 L 211.9 102.7 L 208.8 102.5 L 205.7 102.4 L 202.6 102.4 L 199.6 102.6 L 196.5 102.8 L 193.5 103.1 L 190.5 103.5 L 187.4 104.0 L 184.5 104.6 L 181.5 105.2 L 178.6 106.0 L 175.7 106.9 L 172.8 107.8 L 169.9 108.9 L 167.2 110.0 L 164.4 111.2 L 161.7 112.5 L 159.0 113.9 L 156.4 115.4 L 153.8 116.9 L 151.3 118.5 L 148.9 120.2 L 146.5 122.0 L 144.2 123.9 L 141.9 125.8 L 139.7 127.7 L 137.5 129.8 L 135.5 131.9 L 133.5 134.1 L 131.5 136.3 L 129.7 138.6 L 127.9 140.9 L 126.2 143.3 L 124.6 145.7 L 123.0 148.2 L 121.6 150.7 L 120.2 153.3 L 118.9 155.9 L 117.7 158.5 L 116.6 161.2 L 115.5 163.9 L 114.6 166.6 L 113.7 169.4 L 112.9 172.2 L 112.2 174.9 L 111.6 177.8 L 111.1 180.6 L 110.7 183.4 L 110.4 186.2 L 110.2 189.1 L 110.0 191.9 L 109.9 194.8 L 110.0 197.6 L 110.1 200.4 L 110.3 203.2 L 110.6 206.1 L 111.0 208.8 L 111.5 211.6 L 112.0 214.4 L 112.7 217.1 L 113.4 219.8 L 114.2 222.5 L 115.1 225.1 L 116.1 227.7 L 117.1 230.3 L 118.3 232.8 L 119.5 235.3 L 120.7 237.8 L 122.1 240.2 L 123.5 242.5 L 125.0 244.8 L 126.6 247.1 L 128.3 249.3 L 130.0 251.4 L 131.7 253.5 L 133.6 255.5 L 135.5 257.5 L 137.4 259.4 L 139.4 261.2 L 141.5 263.0 L 143.6 264.7 L 145.7 266.3 L 147.9 267.8 L 150.2 269.3 L 152.5 270.7 L 154.8 272.1 L 157.1 273.3 L 159.5 274.5 L 162.0 275.6 L 164.4 276.6 L 166.9 277.6 L 169.4 278.4 L 171.9 279.2 L 174.5 279.9 L 177.1 280.5 L 179.6 281.1 L 182.2 281.5 L 184.8 281.9 L 187.4 282.2 L 190.0 282.4 L 192.6 282.5 L 195.2 282.5 L 197.8 282.5 L 200.4 282.4 L 203.0 282.2 L 205.6 281.9 L 208.1 281.5 L 210.7 281.1 L 213.2 280.5 L 215.7 279.9 L 218.2 279.3 L 220.6 278.5 L 223.0 277.7 L 225.4 276.8 L 227.8 275.8 L 230.1 274.7 L 232.3 273.6 L 234.6 272.4 L 236.8 271.2 L 238.9 269.8 L 241.0 268.5 L 243.0 267.0 L 245.0 265.5 L 247.0 263.9 L 248.9 262.3 L 250.7 260.6 L 252.5 258.9 L 254.2 257.1 L 255.9 255.3 L 257.5 253.4 L 259.0 251.4 L 260.5 249.5 L 261.9 247.4 L 263.2 245.4 L 264.5 243.3 L 265.7 241.2 L 266.8 239.0 L 267.9 236.8 L 268.9 234.6 L 269.8 232.4 L 270.6 230.1 L 271.4 227.8 L 272.1 225.5 L 272.7 223.2 L 273.3 220.8 L 273.7 218.5 L 274.1 216.1 L 274.5 213.8 L 274.7 211.4 L 274.9 209.0 L 275.0 206.6 L 275.0 204.3 L 274.9 201.9 L 274.8 199.6 L 274.6 197.2 L 274.3 194.9 L 274.0 192.6 L 273.6 190.3 L 273.1 188.0 L 272.5 185.7 L 271.9 183.5 L 271.2 181.3 L 270.4 179.1 L 269.6 176.9 L 268.7 174.8 L 267.7 172.7 L 266.7 170.7 L 265.6 168.6 L 264.4 166.7 L 263.2 164.7 L 262.0 162.8 L 260.6 161.0 L 259.3 159.2 L 257.8 157.4 L 256.3 155.7 L 254.8 154.1 L 253.2 152.5 L 251.6 150.9 L 249.9 149.4 L 248.2 148.0 L 246.4 146.6 L 244.6 145.3 L 242.8 144.1 L 241.0 142.9 L 239.1 141.7 L 237.1 140.7 L 235.2 139.7 L 233.2 138.7 L 231.2 137.8 L 229.1 137.0 L 227.1 136.3 L 225.0 135.6 L 222.9 135.0 L 220.8 134.4 L 218.7 134.0 L 216.6 133.6 L 214.5 133.2 L 212.3 132.9 L 210.2 132.7 L 208.1 132.6 L 205.9 132.5 L 203.8 132.5 L 201.7 132.6 L 199.5 132.7 L 197.4 132.9 L 195.3 133.2 L 193.3 133.5 L 191.2 133.9 L 189.1 134.4 L 187.1 134.9 L 185.1 135.5 L 183.1 136.1 L 181.2 136.8 L 179.2 137.6 L 177.3 138.4 L 175.5 139.3 L 173.6 140.2 L 171.8 141.2 L 170.1 142.3 L 168.3 143.4 L 166.7 144.5 L 165.0 145.7 L 163.4 147.0 L 161.9 148.3 L 160.3 149.6 L 158.9 151.0 L 157.5 152.4 L 156.1 153.9 L 154.8 155.4 L 153.5 157.0 L 152.3 158.6 L 151.1 160.2 L 150.0 161.8 L 149.0 163.5 L 148.0 165.2 L 147.0 166.9 L 146.1 168.7 L 145.3 170.5 L 144.6 172.3 L 143.8 174.1 L 143.2 175.9 L 142.6 177.8 L 142.1 179.6 L 141.6 181.5 L 141.2 183.4 L 140.9 185.3 L 140.6 187.2 L 140.3 189.1 L 140.2 191.0 L 140.1 192.9 L 140.0 194.8 L 140.1 196.7 L 140.1 198.6 L 140.3 200.5 L 140.5 202.3 L 140.7 204.2 L 141.0 206.1 L 141.4 207.9 L 141.8 209.7 L 142.3 211.5 L 142.8 213.3 L 143.4 215.0 L 144.1 216.7 L 144.8 218.4 L 145.5 220.1 L 146.3 221.8 L 147.2 223.4 L 148.1 225.0 L 149.0 226.5 L 150.0 228.0 L 151.0 229.5 L 152.1 231.0 L 153.2 232.4 L 154.4 233.7 L 155.6 235.0 L 156.8 236.3 L 158.1 237.6 L 159.4 238.8 L 160.8 239.9 L 162.1 241.0 L 163.6 242.1 L 165.0 243.1 L 166.5 244.0 L 167.9 244.9 L 169.5 245.8 L 171.0 246.6 L 172.5 247.4 L 174.1 248.1 L 175.7 248.7 L 177.3 249.3 L 178.9 249.9 L 180.6 250.4 L 182.2 250.8 L 183.9 251.2 L 185.5 251.6 L 187.2 251.8 L 188.9 252.1 L 190.5 252.2 L 192.2 252.4 L 193.9 252.4 L 195.5 252.5 L 197.2 252.4 L 198.8 252.3 L 200.5 252.2 L 202.1 252.0 L 203.7 251.7 L 205.4 251.5 L 207.0 251.1 L 208.5 250.7 L 210.1 250.3 L 211.6 249.8 L 213.2 249.3 L 214.7 248.7 L 216.1 248.0 L 217.6 247.4 L 219.0 246.7 L 220.4 245.9 L 221.8 245.1 L 223.1 244.3 L 224.4 243.4 L 225.7 242.5 L 226.9 241.5 L 228.1 240.5 L 229.3 239.5 L 230.4 238.4 L 231.5 237.3 L 232.6 236.2 L 233.6 235.1 L 234.6 233.9 L 235.5 232.7 L 236.4 231.4 L 237.3 230.2 L 238.1 228.9 L 238.9 227.6 L 239.6 226.3 L 240.3 224.9 L 240.9 223.6 L 241.5 222.2 L 242.0 220.8 L 242.5 219.4 L 243.0 218.0 L 243.4 216.6 L 243.7 215.2 L 244.0 213.8 L 244.3 212.3 L 244.5 210.9 L 244.7 209.5 L 244.8 208.0 L 244.9 206.6 L 244.9 205.2 L 244.9 203.7 L 244.9 202.3 L 244.8 200.9 L 244.6 199.5 L 244.4 198.1 L 244.2 196.7 L 243.9 195.3 L 243.6 194.0 L 243.3 192.6 L 242.9 191.3 L 242.4 190.0 L 241.9 188.7 L 241.4 187.4 L 240.9 186.2 L 240.3 184.9 L 239.6 183.7 L 239.0 182.6 L 238.3 181.4 L 237.5 180.3 L 236.7 179.2 L 235.9 178.1 L 235.1 177.1 L 234.2 176.1 L 233.4 175.1 L 232.4 174.2 L 231.5 173.3 L 230.5 172.4 L 229.5 171.5 L 228.5 170.7 L 227.5 170.0 L 226.4 169.2 L 225.3 168.5 L 224.3 167.9 L 223.1 167.2 L 222.0 166.7 L 220.9 166.1 L 219.7 165.6 L 218.6 165.1 L 217.4 164.7 L 216.2 164.3 L 215.0 163.9 L 213.8 163.6 L 212.6 163.4 L 211.4 163.1 L 210.2 162.9 L 209.0 162.8 L 207.8 162.7 L 206.6 162.6 L 205.4 162.5 L 204.2 162.5 L 203.0 162.6 L 201.8 162.6 L 200.6 162.8 L 199.4 162.9 L 198.3 163.1 L 197.1 163.3 L 196.0 163.6 L 194.9 163.9 L 193.8 164.2 L 192.7 164.6 L 191.6 165.0 L 190.5 165.4 L 189.5 165.8 L 188.5 166.3 L 187.5 166.9 L 186.5 167.4 L 185.5 168.0 L 184.6 168.6 L 183.7 169.2 L 182.8 169.9 L 181.9 170.6 L 181.1 171.3 L 180.3 172.0 L 179.5 172.8 L 178.8 173.6 L 178.0 174.3 L 177.3 175.2 L 176.7 176.0 L 176.0 176.9 L 175.4 177.7 L 174.9 178.6 L 174.3 179.5 L 173.8 180.4 L 173.3 181.3 L 172.9 182.3 L 172.5 183.2 L 172.1 184.2 L 171.7 185.1 L 171.4 186.1 L 171.1 187.1 L 170.9 188.0 L 170.6 189.0 L 170.4 190.0 L 170.3 191.0 L 170.2 192.0 L 170.1 192.9 L 170.0 193.9 L 170.0 194.9 L 170.0 195.9 L 170.0 196.8 L 170.1 197.8 L 170.2 198.7 L 170.3 199.7 L 170.5 200.6 L 170.7 201.5 L 170.9 202.4 L 171.1 203.3 L 171.4 204.2 L 171.7 205.1 L 172.0 206.0 L 172.3 206.8 L 172.7 207.6 L 173.1 208.5 L 173.5 209.2 L 174.0 210.0 L 174.5 210.8 L 174.9 211.5 L 175.5 212.2 L 176.0 212.9 L 176.5 213.6 L 177.1 214.3 L 177.7 214.9 L 178.3 215.5 L 178.9 216.1 L 179.6 216.7 L 180.2 217.2 L 180.9 217.7 L 181.6 218.2 L 182.2 218.7 L 182.9 219.1 L 183.7 219.5 L 184.4 219.9 L 185.1 220.3 L 185.8 220.6 L 186.6 220.9 L 187.3 221.2 L 188.1 221.5 L 188.8 221.7 L 189.6 221.9 L 190.3 222.1 L 191.1 222.2 L 191.9 222.4 L 192.6 222.5 L 193.4 222.5 L 194.1 222.6 L 194.9 222.6 L 195.6 222.6 L 196.4 222.6 L 197.1 222.5 L 197.9 222.5 L 198.6 222.4 L 199.3 222.3 L 200.0 222.1 L 200.7 222.0 L 201.4 221.8 L 202.1 221.6 L 202.7 221.3 L 203.4 221.1 L 204.0 220.8 L 204.6 220.5 L 205.3 220.2 L 205.9 219.9 L 206.4 219.6 L 207.0 219.2 L 207.6 218.8 L 208.1 218.5 L 208.6 218.1 L 209.1 217.6 L 209.6 217.2 L 210.1 216.8 L 210.5 216.3 L 210.9 215.8 L 211.3 215.4 L 211.7 214.9 L 212.1 214.4 L 212.5 213.9 L 212.8 213.4 L 213.1 212.8 L 213.4 212.3 L 213.7 211.8 L 213.9 211.2 L 214.1 210.7 L 214.3 210.1 L 214.5 209.6 L 214.7 209.0 L 214.9 208.5 L 215.0 207.9 L 215.1 207.4 L 215.2 206.8 L 215.3 206.3 L 215.3 205.7 L 215.3 205.2 L 215.4 204.7 L 215.4 204.1 L 215.3 203.6 L 215.3 203.1 L 215.2 202.5 L 215.2 202.0 L 215.1 201.5 L 214.9 201.0 L 214.8 200.5 L 214.7 200.1 L 214.5 199.6 L 214.3 199.1 A 2.5 2.5 0 0 0 209.7 200.9 Z" fill="#B85042"/>
</svg>