<?xml version="1.0" encoding="UTF-8"?>
<svg xmlns="http://www.w3.org/2000/svg" viewBox="0 0 480 90" width="480" height="90">
  <g transform="translate(42,45) scale(0.42) translate(-100,-100)">
    <path d="M 104.8 100.4 L 104.9 100.7 L 105.0 100.9 L 105.0 101.1 L 105.0 101.4 L 105.1 101.6 L 105.1 101.9 L 105.1 102.2 L 105.0 102.4 L 105.0 102.7 L 105.0 103.0 L 104.9 103.3 L 104.8 103.5 L 104.7 103.8 L 104.6 104.1 L 104.5 104.4 L 104.4 104.6 L 104.2 104.9 L 104.0 105.2 L 103.9 105.4 L 103.7 105.7 L 103.4 105.9 L 103.2 106.2 L 103.0 106.4 L 102.7 106.6 L 102.4 106.8 L 102.1 107.0 L 101.8 107.2 L 101.5 107.4 L 101.2 107.5 L 100.9 107.7 L 100.5 107.8 L 100.1 107.9 L 99.8 108.0 L 99.4 108.1 L 99.0 108.1 L 98.6 108.2 L 98.2 108.2 L 97.8 108.2 L 97.4 108.2 L 97.0 108.1 L 96.6 108.1 L 96.2 108.0 L 95.8 107.9 L 95.4 107.8 L 94.9 107.6 L 94.5 107.5 L 94.1 107.3 L 93.7 107.1 L 93.3 106.8 L 93.0 106.6 L 92.6 106.3 L 92.2 106.0 L 91.9 105.7 L 91.5 105.4 L 91.2 105.0 L 90.9 104.6 L 90.6 104.3 L 90.3 103.8 L 90.1 103.4 L 89.8 103.0 L 89.6 102.5 L 89.4 102.1 L 89.2 101.6 L 89.1 101.1 L 88.9 100.6 L 88.8 100.0 L 88.7 99.5 L 88.7 99.0 L 88.6 98.4 L 88.6 97.9 L 88.6 97.3 L 88.7 96.8 L 88.8 96.2 L 88.9 95.7 L 89.0 95.1 L 89.1 94.6 L 89.3 94.0 L 89.5 93.5 L 89.8 92.9 L 90.0 92.4 L 90.3 91.9 L 90.7 91.4 L 91.0 90.9 L 91.4 90.4 L 91.8 89.9 L 92.2 89.5 L 92.6 89.0 L 93.1 88.6 L 93.6 88.2 L 94.1 87.9 L 94.7 87.5 L 95.2 87.2 L 95.8 86.9 L 96.4 86.6 L 97.0 86.3 L 97.6 86.1 L 98.3 85.9 L 98.9 85.8 L 99.6 85.6 L 100.3 85.5 L 101.0 85.5 L 101.7 85.4 L 102.3 85.4 L 103.0 85.5 L 103.8 85.5 L 104.5 85.6 L 105.2 85.8 L 105.9 85.9 L 106.6 86.1 L 107.2 86.4 L 107.9 86.7 L 108.6 87.0 L 109.3 87.3 L 109.9 87.7 L 110.5 88.1 L 111.1 88.5 L 111.7 89.0 L 112.3 89.5 L 112.9 90.0 L 113.4 90.6 L 113.9 91.2 L 114.4 91.8 L 114.9 92.4 L 115.3 93.1 L 115.7 93.8 L 116.1 94.5 L 116.4 95.2 L 116.7 96.0 L 117.0 96.8 L 117.2 97.5 L 117.4 98.3 L 117.5 99.2 L 117.7 100.0 L 117.7 100.8 L 117.8 101.7 L 117.8 102.5 L 117.7 103.4 L 117.6 104.2 L 117.5 105.1 L 117.4 105.9 L 117.1 106.8 L 116.9 107.6 L 116.6 108.4 L 116.3 109.2 L 115.9 110.0 L 115.5 110.8 L 115.0 111.6 L 114.6 112.4 L 114.0 113.1 L 113.5 113.8 L 112.9 114.5 L 112.2 115.2 L 111.6 115.8 L 110.9 116.4 L 110.1 117.0 L 109.4 117.5 L 108.6 118.0 L 107.7 118.5 L 106.9 119.0 L 106.0 119.3 L 105.1 119.7 L 104.2 120.0 L 103.3 120.3 L 102.3 120.5 L 101.4 120.7 L 100.4 120.8 L 99.4 120.9 L 98.4 121.0 L 97.4 121.0 L 96.4 120.9 L 95.4 120.8 L 94.4 120.7 L 93.4 120.5 L 92.4 120.3 L 91.5 120.0 L 90.5 119.6 L 89.5 119.2 L 88.6 118.8 L 87.7 118.3 L 86.8 117.8 L 85.9 117.2 L 85.0 116.6 L 84.2 116.0 L 83.4 115.3 L 82.6 114.5 L 81.9 113.8 L 81.1 113.0 L 80.5 112.1 L 79.8 111.2 L 79.2 110.3 L 78.7 109.4 L 78.2 108.4 L 77.7 107.4 L 77.3 106.3 L 76.9 105.3 L 76.6 104.2 L 76.4 103.1 L 76.1 102.0 L 76.0 100.9 L 75.9 99.8 L 75.8 98.6 L 75.8 97.5 L 75.9 96.3 L 76.0 95.2 L 76.1 94.0 L 76.3 92.9 L 76.6 91.7 L 76.9 90.6 L 77.3 89.5 L 77.7 88.4 L 78.2 87.3 L 78.8 86.2 L 79.4 85.2 L 80.0 84.2 L 80.7 83.2 L 81.4 82.2 L 82.2 81.3 L 83.1 80.4 L 83.9 79.6 L 84.9 78.8 L 85.8 78.0 L 86.8 77.3 L 87.9 76.6 L 88.9 76.0 L 90.1 75.4 L 91.2 74.8 L 92.4 74.4 L 93.5 73.9 L 94.8 73.6 L 96.0 73.3 L 97.3 73.0 L 98.5 72.8 L 99.8 72.7 L 101.1 72.6 L 102.4 72.6 L 103.7 72.6 L 105.0 72.7 L 106.3 72.9 L 107.6 73.1 L 108.9 73.4 L 110.1 73.8 L 111.4 74.2 L 112.7 74.7 L 113.9 75.2 L 115.1 75.8 L 116.3 76.5 L 117.4 77.2 L 118.5 78.0 L 119.6 78.8 L 120.6 79.7 L 121.7 80.6 L 122.6 81.6 L 123.5 82.6 L 124.4 83.7 L 125.2 84.8 L 126.0 86.0 L 126.7 87.2 L 127.4 88.4 L 128.0 89.7 L 128.5 91.0 L 129.0 92.3 L 129.5 93.6 L 129.8 95.0 L 130.1 96.4 L 130.4 97.8 L 130.5 99.3 L 130.6 100.7 L 130.6 102.2 L 130.6 103.6 L 130.5 105.1 L 130.3 106.5 L 130.1 108.0 L 129.8 109.4 L 129.4 110.8 L 128.9 112.2 L 128.4 113.6 L 127.8 115.0 L 127.2 116.3 L 126.4 117.6 L 125.7 118.9 L 124.8 120.2 L 123.9 121.4 L 123.0 122.5 L 121.9 123.7 L 120.9 124.8 L 119.7 125.8 L 118.5 126.8 L 117.3 127.7 L 116.0 128.6 L 114.7 129.4 L 113.4 130.1 L 112.0 130.8 L 110.5 131.4 L 109.1 132.0 L 107.6 132.5 L 106.0 132.9 L 104.5 133.2 L 102.9 133.5 L 101.4 133.7 L 99.8 133.8 L 98.2 133.9 L 96.6 133.8 L 95.0 133.7 L 93.4 133.6 L 91.8 133.3 L 90.2 133.0 L 88.6 132.6 L 87.1 132.1 L 85.5 131.5 L 84.0 130.9 L 82.5 130.2 L 81.1 129.4 L 79.7 128.6 L 78.3 127.7 L 76.9 126.7 L 75.6 125.6 L 74.4 124.5 L 73.2 123.4 L 72.0 122.1 L 70.9 120.8 L 69.9 119.5 L 68.9 118.1 L 68.0 116.7 L 67.2 115.2 L 66.4 113.7 L 65.7 112.1 L 65.1 110.5 L 64.6 108.9 L 64.1 107.2 L 63.7 105.5 L 63.4 103.8 L 63.1 102.1 L 63.0 100.4 L 62.9 98.6 L 62.9 96.9 L 63.0 95.1 L 63.2 93.4 L 63.5 91.6 L 63.8 89.9 L 64.2 88.1 L 64.7 86.4 L 65.3 84.8 L 66.0 83.1 L 66.7 81.5 L 67.6 79.9 L 68.5 78.3 L 69.4 76.8 L 70.5 75.3 L 71.6 73.9 L 72.8 72.5 L 74.1 71.2 L 75.4 69.9 L 76.8 68.7 L 78.2 67.6 L 79.7 66.5 L 81.3 65.5 L 82.9 64.6 L 84.5 63.7 L 86.2 62.9 L 88.0 62.2 L 89.7 61.6 L 91.5 61.1 L 93.3 60.6 L 95.2 60.3 L 97.1 60.0 L 98.9 59.8 L 100.8 59.7 L 102.7 59.7 L 104.7 59.8 L 106.6 59.9 L 108.5 60.2 L 110.3 60.5 L 112.2 61.0 L 114.1 61.5 L 115.9 62.1 L 117.7 62.8 L 119.5 63.6 L 121.2 64.5 L 122.9 65.5 L 124.6 66.5 L 126.2 67.6 L 127.8 68.8 L 129.3 70.1 L 130.7 71.4 L 132.1 72.8 L 133.4 74.3 L 134.7 75.9 L 135.9 77.5 L 137.0 79.2 L 138.0 80.9 L 138.9 82.6 L 139.8 84.5 L 140.6 86.3 L 141.3 88.2 L 141.9 90.2 L 142.4 92.1 L 142.8 94.1 L 143.1 96.1 L 143.4 98.2 L 143.5 100.2 A 4.5 4.5 0 0 0 152.5 99.8 L 152.3 97.3 L 152.0 94.9 L 151.6 92.4 L 151.1 90.0 L 150.4 87.7 L 149.7 85.3 L 148.8 83.1 L 147.9 80.8 L 146.8 78.6 L 145.7 76.5 L 144.4 74.4 L 143.1 72.4 L 141.6 70.5 L 140.1 68.6 L 138.5 66.8 L 136.8 65.2 L 135.0 63.5 L 133.2 62.0 L 131.3 60.6 L 129.4 59.2 L 127.3 58.0 L 125.3 56.9 L 123.2 55.8 L 121.0 54.9 L 118.8 54.0 L 116.6 53.3 L 114.3 52.7 L 112.1 52.2 L 109.8 51.8 L 107.5 51.5 L 105.2 51.3 L 102.9 51.2 L 100.6 51.2 L 98.3 51.4 L 96.0 51.6 L 93.7 52.0 L 91.5 52.4 L 89.3 53.0 L 87.1 53.7 L 85.0 54.4 L 82.9 55.3 L 80.8 56.3 L 78.9 57.3 L 76.9 58.5 L 75.1 59.7 L 73.2 61.0 L 71.5 62.4 L 69.8 63.9 L 68.2 65.4 L 66.7 67.0 L 65.3 68.7 L 63.9 70.5 L 62.7 72.3 L 61.5 74.1 L 60.4 76.0 L 59.4 77.9 L 58.6 79.9 L 57.8 82.0 L 57.1 84.0 L 56.5 86.1 L 56.0 88.2 L 55.6 90.3 L 55.3 92.4 L 55.1 94.5 L 55.0 96.7 L 55.0 98.8 L 55.1 100.9 L 55.3 103.0 L 55.6 105.1 L 56.0 107.2 L 56.5 109.2 L 57.1 111.2 L 57.8 113.2 L 58.6 115.1 L 59.4 117.0 L 60.4 118.9 L 61.4 120.7 L 62.5 122.4 L 63.7 124.1 L 65.0 125.7 L 66.3 127.3 L 67.7 128.7 L 69.2 130.2 L 70.7 131.5 L 72.3 132.7 L 74.0 133.9 L 75.7 135.0 L 77.4 136.0 L 79.2 137.0 L 81.0 137.8 L 82.8 138.6 L 84.7 139.2 L 86.6 139.8 L 88.5 140.3 L 90.5 140.6 L 92.4 140.9 L 94.4 141.1 L 96.3 141.2 L 98.3 141.3 L 100.2 141.2 L 102.2 141.0 L 104.1 140.8 L 106.0 140.4 L 107.8 140.0 L 109.7 139.4 L 111.5 138.8 L 113.3 138.1 L 115.0 137.4 L 116.7 136.5 L 118.4 135.6 L 120.0 134.6 L 121.5 133.5 L 123.0 132.4 L 124.4 131.2 L 125.8 129.9 L 127.1 128.5 L 128.3 127.2 L 129.5 125.7 L 130.6 124.2 L 131.6 122.7 L 132.6 121.1 L 133.4 119.5 L 134.2 117.9 L 134.9 116.2 L 135.5 114.5 L 136.1 112.7 L 136.5 111.0 L 136.9 109.2 L 137.2 107.5 L 137.4 105.7 L 137.5 103.9 L 137.5 102.1 L 137.4 100.4 L 137.3 98.6 L 137.1 96.9 L 136.8 95.1 L 136.4 93.4 L 135.9 91.7 L 135.4 90.1 L 134.8 88.5 L 134.1 86.9 L 133.3 85.3 L 132.5 83.8 L 131.6 82.4 L 130.7 81.0 L 129.6 79.6 L 128.5 78.3 L 127.4 77.0 L 126.2 75.8 L 125.0 74.7 L 123.7 73.7 L 122.3 72.7 L 120.9 71.7 L 119.5 70.9 L 118.1 70.1 L 116.6 69.4 L 115.1 68.7 L 113.5 68.1 L 112.0 67.6 L 110.4 67.2 L 108.8 66.9 L 107.2 66.6 L 105.6 66.4 L 104.0 66.3 L 102.4 66.3 L 100.8 66.3 L 99.2 66.4 L 97.7 66.6 L 96.1 66.9 L 94.6 67.2 L 93.1 67.6 L 91.6 68.1 L 90.1 68.6 L 88.7 69.2 L 87.3 69.9 L 85.9 70.6 L 84.6 71.4 L 83.3 72.3 L 82.1 73.2 L 80.9 74.1 L 79.8 75.2 L 78.7 76.2 L 77.7 77.3 L 76.7 78.5 L 75.8 79.7 L 75.0 80.9 L 74.2 82.2 L 73.5 83.5 L 72.9 84.8 L 72.3 86.1 L 71.8 87.5 L 71.3 88.9 L 70.9 90.3 L 70.6 91.7 L 70.4 93.1 L 70.2 94.6 L 70.1 96.0 L 70.0 97.4 L 70.0 98.8 L 70.1 100.2 L 70.3 101.6 L 70.5 103.0 L 70.8 104.4 L 71.2 105.7 L 71.6 107.1 L 72.0 108.4 L 72.6 109.6 L 73.2 110.9 L 73.8 112.1 L 74.5 113.3 L 75.3 114.4 L 76.1 115.5 L 76.9 116.5 L 77.8 117.5 L 78.7 118.5 L 79.7 119.4 L 80.7 120.2 L 81.8 121.0 L 82.9 121.8 L 84.0 122.5 L 85.1 123.1 L 86.3 123.7 L 87.5 124.2 L 88.7 124.7 L 89.9 125.1 L 91.1 125.4 L 92.4 125.7 L 93.6 125.9 L 94.8 126.1 L 96.1 126.2 L 97.4 126.2 L 98.6 126.2 L 99.8 126.1 L 101.1 126.0 L 102.3 125.8 L 103.5 125.6 L 104.7 125.3 L 105.8 124.9 L 107.0 124.5 L 108.1 124.0 L 109.1 123.5 L 110.2 122.9 L 111.2 122.3 L 112.2 121.7 L 113.2 121.0 L 114.1 120.3 L 114.9 119.5 L 115.8 118.7 L 116.6 117.8 L 117.3 116.9 L 118.0 116.0 L 118.6 115.1 L 119.2 114.1 L 119.8 113.1 L 120.3 112.1 L 120.7 111.1 L 121.1 110.1 L 121.5 109.0 L 121.8 108.0 L 122.0 106.9 L 122.2 105.8 L 122.4 104.7 L 122.4 103.7 L 122.5 102.6 L 122.5 101.5 L 122.4 100.4 L 122.3 99.4 L 122.1 98.3 L 121.9 97.3 L 121.6 96.3 L 121.3 95.3 L 121.0 94.3 L 120.6 93.4 L 120.1 92.5 L 119.6 91.6 L 119.1 90.7 L 118.6 89.9 L 118.0 89.1 L 117.3 88.3 L 116.7 87.6 L 116.0 86.9 L 115.3 86.2 L 114.5 85.6 L 113.7 85.0 L 112.9 84.4 L 112.1 83.9 L 111.3 83.5 L 110.4 83.1 L 109.6 82.7 L 108.7 82.3 L 107.8 82.1 L 106.9 81.8 L 106.0 81.6 L 105.1 81.5 L 104.2 81.4 L 103.3 81.3 L 102.4 81.3 L 101.5 81.3 L 100.6 81.4 L 99.7 81.5 L 98.9 81.6 L 98.0 81.8 L 97.2 82.0 L 96.3 82.3 L 95.5 82.6 L 94.7 82.9 L 94.0 83.3 L 93.2 83.7 L 92.5 84.1 L 91.8 84.6 L 91.2 85.1 L 90.6 85.6 L 90.0 86.2 L 89.4 86.8 L 88.8 87.4 L 88.3 88.0 L 87.9 88.6 L 87.4 89.3 L 87.0 90.0 L 86.7 90.7 L 86.3 91.4 L 86.0 92.1 L 85.8 92.8 L 85.6 93.5 L 85.4 94.3 L 85.2 95.0 L 85.1 95.7 L 85.0 96.5 L 85.0 97.2 L 85.0 97.9 L 85.0 98.6 L 85.1 99.4 L 85.2 100.1 L 85.3 100.8 L 85.5 101.4 L 85.7 102.1 L 85.9 102.8 L 86.2 103.4 L 86.5 104.0 L 86.8 104.6 L 87.1 105.2 L 87.5 105.8 L 87.9 106.3 L 88.3 106.8 L 88.7 107.3 L 89.2 107.8 L 89.6 108.2 L 90.1 108.6 L 90.6 109.0 L 91.1 109.3 L 91.7 109.7 L 92.2 110.0 L 92.7 110.2 L 93.3 110.5 L 93.8 110.7 L 94.4 110.8 L 95.0 111.0 L 95.6 111.1 L 96.1 111.2 L 96.7 111.3 L 97.3 111.3 L 97.8 111.3 L 98.4 111.3 L 98.9 111.2 L 99.5 111.2 L 100.0 111.1 L 100.5 110.9 L 101.0 110.8 L 101.5 110.6 L 102.0 110.4 L 102.5 110.2 L 102.9 110.0 L 103.4 109.7 L 103.8 109.4 L 104.2 109.1 L 104.6 108.8 L 104.9 108.5 L 105.3 108.2 L 105.6 107.8 L 105.9 107.4 L 106.1 107.1 L 106.4 106.7 L 106.6 106.3 L 106.8 105.9 L 107.0 105.5 L 107.2 105.1 L 107.3 104.7 L 107.4 104.2 L 107.5 103.8 L 107.6 103.4 L 107.6 103.0 L 107.7 102.6 L 107.7 102.2 L 107.7 101.8 L 107.6 101.4 L 107.6 101.0 L 107.5 100.6 L 107.4 100.3 L 107.3 99.9 L 107.2 99.6 A 1.2 1.2 0 0 0 104.8 100.4 Z" fill="#B85042"/>
  </g>
  <text x="100" y="42" font-family="DM Serif Display, Georgia, serif" font-size="26" fill="#3D2B1F" letter-spacing="-0.5">UX by</text>
  <text x="100" y="72" font-family="DM Serif Display, Georgia, serif" font-size="26" fill="#B85042" letter-spacing="-0.5">Lidia Ochoa</text>
</svg>