<svg xmlns="http://www.w3.org/2000/svg" viewBox="0 0 960 600" font-family="Commissioner, Inter, sans-serif">
  <rect width="960" height="600" fill="#fafaf8"/>

  <!-- Title -->
  <text x="40" y="36" font-size="18" font-weight="700" fill="#2d2d2d">Architecture: Before &amp; After</text>
  <text x="40" y="54" font-size="11" font-weight="600" fill="#888" style="text-transform:uppercase; letter-spacing:0.5px">Original Webflow Build vs. Astro Rebuild</text>

  <!-- ==================== BEFORE PANEL ==================== -->
  <rect x="40" y="80" width="420" height="500" rx="12" fill="#fff" stroke="#2d2d2d" stroke-width="2"/>
  <text x="250" y="110" text-anchor="middle" font-size="14" font-weight="700" fill="#2d2d2d">My Original Webflow Build</text>

  <!-- Shared styles block -->
  <rect x="100" y="130" width="300" height="44" rx="10" fill="#f5f4f0" stroke="#ccc" stroke-width="2"/>
  <text x="250" y="148" text-anchor="middle" font-size="13" font-weight="600" fill="#2d2d2d">Shared styles</text>
  <text x="250" y="164" text-anchor="middle" font-size="10" fill="#888">reused across pages, but hard to manage</text>

  <!-- Lines from shared styles to pages -->
  <line x1="155" y1="174" x2="155" y2="200" stroke="#ccc" stroke-width="1.5"/>
  <line x1="345" y1="174" x2="345" y2="200" stroke="#ccc" stroke-width="1.5"/>
  <!-- Extended line to Budget App -->
  <line x1="250" y1="174" x2="250" y2="285" stroke="#ccc" stroke-width="1.5"/>

  <!-- Homepage -->
  <rect x="70" y="200" width="170" height="70" rx="10" fill="#f5f4f0" stroke="#ccc" stroke-width="2"/>
  <text x="155" y="224" text-anchor="middle" font-size="13" font-weight="600" fill="#2d2d2d">Homepage</text>
  <text x="155" y="242" text-anchor="middle" font-size="10" fill="#888">+ unique overrides</text>

  <!-- ComBoard -->
  <rect x="260" y="200" width="170" height="70" rx="10" fill="#f5f4f0" stroke="#ccc" stroke-width="2"/>
  <text x="345" y="224" text-anchor="middle" font-size="13" font-weight="600" fill="#2d2d2d">ComBoard</text>
  <text x="345" y="242" text-anchor="middle" font-size="10" fill="#888">+ unique overrides</text>

  <!-- Budget App -->
  <rect x="165" y="285" width="170" height="70" rx="10" fill="#f5f4f0" stroke="#ccc" stroke-width="2"/>
  <text x="250" y="309" text-anchor="middle" font-size="13" font-weight="600" fill="#2d2d2d">Budget App</text>
  <text x="250" y="327" text-anchor="middle" font-size="10" fill="#888">+ unique overrides</text>

  <!-- Issues — left-aligned at x=65, starting y=390 -->
  <text x="65" y="395" font-size="13" font-weight="500" fill="#c44">6 font families loaded</text>
  <text x="65" y="415" font-size="13" font-weight="500" fill="#c44">No skip links implemented</text>
  <text x="65" y="435" font-size="13" font-weight="500" fill="#c44">Dark mode not set up</text>
  <text x="65" y="455" font-size="13" font-weight="500" fill="#c44">No reduced-motion handling</text>
  <text x="65" y="475" font-size="13" font-weight="500" fill="#c44">Semantic tags underused</text>
  <text x="65" y="495" font-size="13" font-weight="500" fill="#c44">No design token system in place</text>

  <text x="65" y="535" font-size="11" font-weight="400" font-style="italic" fill="#999">Webflow supports these features — they were not</text>
  <text x="65" y="550" font-size="11" font-weight="400" font-style="italic" fill="#999">used in this build.</text>

  <!-- ==================== AFTER PANEL ==================== -->
  <rect x="500" y="80" width="420" height="500" rx="12" fill="#fff" stroke="#2d2d2d" stroke-width="2"/>
  <text x="710" y="110" text-anchor="middle" font-size="14" font-weight="700" fill="#2d2d2d">Astro Rebuild</text>

  <!-- BaseLayout with "always includes" inside -->
  <rect x="600" y="130" width="220" height="48" rx="10" fill="#fff" stroke="#2d2d2d" stroke-width="2"/>
  <text x="710" y="150" text-anchor="middle" font-size="13" font-weight="600" fill="#2d2d2d">BaseLayout.astro</text>
  <text x="710" y="168" text-anchor="middle" font-size="10" fill="#888">always includes &#x2193;</text>

  <!-- Lines from BaseLayout down to its 3 always-included components -->
  <line x1="620" y1="178" x2="570" y2="205" stroke="#2d2d2d" stroke-width="1.5"/>
  <line x1="710" y1="178" x2="710" y2="205" stroke="#2d2d2d" stroke-width="1.5"/>
  <line x1="800" y1="178" x2="850" y2="205" stroke="#2d2d2d" stroke-width="1.5"/>

  <!-- Always-included components -->
  <rect x="520" y="205" width="100" height="32" rx="10" fill="#fff" stroke="#2d2d2d" stroke-width="2"/>
  <text x="570" y="226" text-anchor="middle" font-size="13" fill="#2d2d2d">SkipLink</text>

  <rect x="660" y="205" width="100" height="32" rx="10" fill="#fff" stroke="#2d2d2d" stroke-width="2"/>
  <text x="710" y="226" text-anchor="middle" font-size="13" fill="#2d2d2d">Header</text>

  <rect x="800" y="205" width="100" height="32" rx="10" fill="#fff" stroke="#2d2d2d" stroke-width="2"/>
  <text x="850" y="226" text-anchor="middle" font-size="13" fill="#2d2d2d">Footer</text>

  <!-- Pages row — taller pills with "imports ↓" inside -->
  <rect x="520" y="260" width="82" height="48" rx="10" fill="#fff" stroke="#2d2d2d" stroke-width="2"/>
  <text x="561" y="280" text-anchor="middle" font-size="13" font-weight="600" fill="#2d2d2d">home</text>
  <text x="561" y="298" text-anchor="middle" font-size="10" fill="#888">imports &#x2193;</text>

  <rect x="612" y="260" width="100" height="48" rx="10" fill="#fff" stroke="#2d2d2d" stroke-width="2"/>
  <text x="662" y="280" text-anchor="middle" font-size="13" font-weight="600" fill="#2d2d2d">comboard</text>
  <text x="662" y="298" text-anchor="middle" font-size="10" fill="#888">imports &#x2193;</text>

  <rect x="722" y="260" width="82" height="48" rx="10" fill="#fff" stroke="#2d2d2d" stroke-width="2"/>
  <text x="763" y="280" text-anchor="middle" font-size="13" font-weight="600" fill="#2d2d2d">budget</text>
  <text x="763" y="298" text-anchor="middle" font-size="10" fill="#888">imports &#x2193;</text>

  <rect x="814" y="260" width="86" height="48" rx="10" fill="#fff" stroke="#2d2d2d" stroke-width="2"/>
  <text x="857" y="280" text-anchor="middle" font-size="13" font-weight="600" fill="#2d2d2d">portfolio</text>
  <text x="857" y="298" text-anchor="middle" font-size="10" fill="#888">imports &#x2193;</text>

  <!-- Connector: home to ProjectCard -->
  <line x1="561" y1="308" x2="561" y2="340" stroke="#2d2d2d" stroke-width="1.5"/>

  <rect x="516" y="340" width="110" height="32" rx="10" fill="#fff" stroke="#2d2d2d" stroke-width="2"/>
  <text x="571" y="361" text-anchor="middle" font-size="13" fill="#2d2d2d">ProjectCard</text>

  <!-- Connectors: case study pages to shared component container (one row up) -->
  <line x1="662" y1="308" x2="662" y2="340" stroke="#2d2d2d" stroke-width="1.5"/>
  <line x1="763" y1="308" x2="763" y2="340" stroke="#2d2d2d" stroke-width="1.5"/>
  <line x1="857" y1="308" x2="857" y2="340" stroke="#2d2d2d" stroke-width="1.5"/>

  <!-- Shared case study components container -->
  <rect x="640" y="340" width="240" height="48" rx="10" fill="#f5f4f0" stroke="#2d2d2d" stroke-width="1.5"/>

  <rect x="650" y="348" width="100" height="32" rx="10" fill="#fff" stroke="#2d2d2d" stroke-width="2"/>
  <text x="700" y="369" text-anchor="middle" font-size="13" fill="#2d2d2d">SideNav</text>

  <rect x="760" y="348" width="110" height="32" rx="10" fill="#fff" stroke="#2d2d2d" stroke-width="2"/>
  <text x="815" y="369" text-anchor="middle" font-size="13" fill="#2d2d2d">PrevNextNav</text>

  <!-- Wins — left-aligned at x=525, matching Before panel distance from edge -->
  <text x="525" y="425" font-size="13" font-weight="500" fill="#2a8c2a">Hand-written semantic HTML + ARIA</text>
  <text x="525" y="445" font-size="13" font-weight="500" fill="#2a8c2a">Reusable Astro components</text>
  <text x="525" y="465" font-size="13" font-weight="500" fill="#2a8c2a">CSS custom properties as design tokens</text>
  <text x="525" y="485" font-size="13" font-weight="500" fill="#2a8c2a">Dark mode + prefers-reduced-motion</text>
  <text x="525" y="505" font-size="13" font-weight="500" fill="#2a8c2a">Skip links, landmarks, focus management</text>
  <text x="525" y="525" font-size="13" font-weight="500" fill="#2a8c2a">2 font families, optimized loading</text>
</svg>