<svg xmlns="http://www.w3.org/2000/svg" viewBox="0 0 400 400">
  <circle cx="200" cy="200" r="190" fill="#ffad00" opacity="0.15"/>
  <circle cx="200" cy="200" r="150" fill="#ffad00" opacity="0.25"/>
  <!-- Clipboard -->
  <rect x="130" y="100" width="140" height="190" rx="10" fill="#fff" stroke="#2d2d2d" stroke-width="3"/>
  <rect x="170" y="88" width="60" height="24" rx="6" fill="#ffad00" stroke="#2d2d2d" stroke-width="2"/>
  <circle cx="200" cy="100" r="4" fill="#2d2d2d"/>
  <!-- Checklist lines -->
  <rect x="152" y="135" width="14" height="14" rx="3" stroke="#ffad00" stroke-width="2" fill="none"/>
  <polyline points="154,142 158,146 164,137" stroke="#ffad00" stroke-width="2" fill="none"/>
  <rect x="174" y="138" width="76" height="6" rx="3" fill="#e0e0e0"/>

  <rect x="152" y="163" width="14" height="14" rx="3" stroke="#ffad00" stroke-width="2" fill="none"/>
  <polyline points="154,170 158,174 164,165" stroke="#ffad00" stroke-width="2" fill="none"/>
  <rect x="174" y="166" width="60" height="6" rx="3" fill="#e0e0e0"/>

  <rect x="152" y="191" width="14" height="14" rx="3" stroke="#ffad00" stroke-width="2" fill="none"/>
  <polyline points="154,198 158,202 164,193" stroke="#ffad00" stroke-width="2" fill="none"/>
  <rect x="174" y="194" width="70" height="6" rx="3" fill="#e0e0e0"/>

  <rect x="152" y="219" width="14" height="14" rx="3" stroke="#c44" stroke-width="2" fill="none"/>
  <line x1="155" y1="222" x2="163" y2="230" stroke="#c44" stroke-width="2"/>
  <line x1="163" y1="222" x2="155" y2="230" stroke="#c44" stroke-width="2"/>
  <rect x="174" y="222" width="66" height="6" rx="3" fill="#e0e0e0"/>

  <rect x="152" y="247" width="14" height="14" rx="3" stroke="#ffad00" stroke-width="2" fill="none"/>
  <polyline points="154,254 158,258 164,249" stroke="#ffad00" stroke-width="2" fill="none"/>
  <rect x="174" y="250" width="80" height="6" rx="3" fill="#e0e0e0"/>

  <!-- A11y icon -->
  <circle cx="200" cy="330" r="20" fill="#ffad00" opacity="0.3"/>
  <circle cx="200" cy="324" r="5" fill="#2d2d2d" opacity="0.2"/>
  <path d="M190 336 L200 330 L210 336" stroke="#2d2d2d" stroke-width="2" fill="none" opacity="0.2"/>
  <line x1="200" y1="330" x2="200" y2="344" stroke="#2d2d2d" stroke-width="2" opacity="0.2"/>
</svg>